#!OML:ASF I:\Actors\actors\Patient Classification 1\Patient 1\Session 1\Subject1.ASF
:FULLY-SPECIFIED
:DEGREES
243
root -0.344777 17.5641 7.36993 6.07349 -2.10615 -7.47923
lowerback 3.26004 2.42633 5.58333
upperback -7.24607 3.77325 0.63952
thorax -9.19865 1.47297 -2.84959
lowerneck -12.7991 1.12717 4.85949
upperneck 31.7118 1.35188 -2.91116
head 12.7126 0.822263 -1.76971
rclavicle 1.91827e-014 3.73715e-014
rhumerus -17.4298 45.2586 -94.7619
rradius 91.9785
rwrist 23.9494
rhand -31.6456 -41.3738
rfingers 7.12502
rthumb -4.90658 -431.297
lclavicle 1.91827e-014 3.73715e-014
lhumerus -32.7181 -26.0998 102.441
lradius 85.7574
lwrist 10.1258
lhand -37.2735 -4.81481
lfingers 7.12502
lthumb -10.3385 24.9111
rfemur -1.47742 24.422 25.1152
rtibia 2.52182
rfoot -10.5528 -21.5649
rtoes 0.682755
lfemur 6.80513 -39.1635 -15.7636
ltibia -3.66217
lfoot -14.7613 48.1826
ltoes 8.49527
244
root -0.344828 17.5619 7.37353 5.92774 -2.21115 -7.53886
lowerback 3.21446 2.49366 5.45071
upperback -7.18541 3.85233 0.704464
thorax -9.10864 1.52815 -2.71082
lowerneck -12.6776 1.06919 4.99683
upperneck 31.5456 1.26786 -3.01748
head 12.6152 0.786737 -1.84419
rclavicle 7.70291e-015 -1.15295e-014
rhumerus -18.2142 46.1542 -95.2675
rradius 88.1305
rwrist 20.8363
rhand -23.4267 -38.2191
rfingers 7.12502
rthumb 3.03101 -428.177
lclavicle 7.70291e-015 -1.15295e-014
lhumerus -32.6028 -26.2147 102.386
lradius 85.8857
lwrist 10.2275
lhand -37.5001 -4.97875
lfingers 7.12502
lthumb -10.5571 24.7361
rfemur -1.35655 24.3696 25.2529
rtibia 2.63108
rfoot -10.5598 -21.4444
rtoes 0.556191
lfemur 7.01173 -38.9587 -15.8131
ltibia -3.64748
lfoot -14.8276 48.0817
ltoes 8.51555
245
root -0.346949 17.5609 7.37692 5.71421 -2.44084 -7.41771
lowerback 3.28476 2.557 5.13547
upperback -7.10807 3.91628 0.735302
thorax -9.07821 1.5852 -2.51156
lowerneck -12.8983 0.997367 4.70666
upperneck 31.6627 1.16201 -2.80861
head 12.7018 0.731703 -1.73024
rclavicle -2.88735e-014 1.98785e-014
rhumerus -17.8565 47.7295 -95.0282
rradius 85.1243
rwrist 11.5838
rhand -9.27582 -40.4399
rfingers 7.12502
rthumb 16.6809 -429.743
lclavicle -2.88735e-014 1.98785e-014
lhumerus -32.5319 -26.0579 102.283
lradius 86.0504
lwrist 10.251
lhand -37.7528 -5.26877
lfingers 7.12502
lthumb -10.8009 24.4335
rfemur -1.18224 24.2683 25.1915
rtibia 2.7453
rfoot -10.5675 -21.1863
rtoes 0.231454
lfemur 7.41118 -38.8625 -16.225
ltibia -3.64987
lfoot -15.0259 48.1504
ltoes 8.77987
246
root -0.345141 17.5563 7.38039 5.58058 -2.5574 -7.24534
lowerback 3.28867 2.5701 4.86589
upperback -7.05307 3.91053 0.739274
thorax -9.03487 1.60375 -2.3561
lowerneck -13.0449 0.992189 4.59253
upperneck 31.7164 1.1565 -2.74232
head 12.7539 0.723677 -1.68646
rclavicle -2.1419e-014 -3.53837e-014
rhumerus -17.1715 49.0249 -94.5437
rradius 83.5319
rwrist -1.38366
rhand 1.07009 -49.7503
rfingers 7.12502
rthumb 26.6149 -437.9
lclavicle -2.1419e-014 -3.53837e-014
lhumerus -32.5032 -25.6723 102.213
lradius 86.2265
lwrist 10.15
lhand -38.0157 -5.56163
lfingers 7.12502
lthumb -11.0544 24.1273
rfemur -1.07797 24.0829 25.017
rtibia 2.79669
rfoot -10.5346 -20.952
rtoes -0.110213
lfemur 7.60434 -38.7702 -16.5892
ltibia -3.58439
lfoot -15.0639 48.1302
ltoes 8.79351
247
root -0.341075 17.5504 7.38218 5.58986 -2.56712 -7.19474
lowerback 3.2993 2.60145 4.78521
upperback -7.08194 3.94676 0.718308
thorax -9.07339 1.62477 -2.3387
lowerneck -13.1944 0.937625 4.41557
upperneck 31.7325 1.05203 -2.54249
head 12.7856 0.681608 -1.59379
rclavicle 1.85864e-014 1.51076e-014
rhumerus -17.631 49.6264 -94.8508
rradius 82.151
rwrist -10.5801
rhand -3.54755 -51.2831
rfingers 7.12502
rthumb 22.1884 -440.03
lclavicle 1.85864e-014 1.51076e-014
lhumerus -32.5477 -25.3761 102.193
lradius 86.3958
lwrist 9.98597
lhand -38.1817 -5.65473
lfingers 7.12502
lthumb -11.2145 24.0255
rfemur -1.12746 23.926 24.9307
rtibia 2.85201
rfoot -10.4907 -20.8122
rtoes -0.406121
lfemur 7.54175 -38.6491 -16.6263
ltibia -3.53283
lfoot -14.9053 48.0398
ltoes 8.55175
